<?xml version="1.0" encoding="UTF-8" standalone="no"?>
<!-- Created with Inkscape (http://www.inkscape.org/) -->

<svg
   width="19.812088"
   height="17.126394"
   viewBox="0 0 5.2419483 4.5313585"
   version="1.1"
   id="svg1"
   xmlns="http://www.w3.org/2000/svg"
   xmlns:svg="http://www.w3.org/2000/svg">
  <defs
     id="defs1" />
  <g
     id="layer1"
     transform="translate(-45.243752,-3.7041669)">
    <g
       id="g7">
      <path
         d="m 47.491898,5.2584448 c -0.343102,0.079965 -0.644793,0.2681312 -0.867648,0.5260661 -0.131747,-0.028133 -0.256751,-0.05118 -0.373103,-0.068213 -0.252075,-0.036902 -0.463342,-0.047596 -0.625285,-0.027905 -0.08097,0.00985 -0.149619,0.027475 -0.205156,0.055294 -0.05554,0.027819 -0.09898,0.06865 -0.119372,0.1219564 -0.02039,0.053306 -0.01504,0.1122328 0.0078,0.1700154 0.02279,0.057783 0.06255,0.1169091 0.116272,0.1782837 0.107453,0.1227485 0.271348,0.2555966 0.483691,0.3963582 0.09657,0.064014 0.202907,0.1293621 0.31781,0.195337 -4.17e-4,0.014781 -4.95e-4,0.029566 -5.17e-4,0.044442 -0.131327,0.074211 -0.251785,0.1477675 -0.360184,0.2196248 -0.02827,0.018739 -0.0561,0.037279 -0.08268,0.055811 -0.04732,-0.042329 -0.109697,-0.067696 -0.178284,-0.067696 -0.147938,0 -0.269234,0.1192289 -0.269234,0.2671672 0,0.053474 0.01562,0.1036362 0.04289,0.1457275 -0.05279,0.060567 -0.0922,0.117037 -0.114722,0.1741496 -0.02279,0.057783 -0.02814,0.1172247 -0.0077,0.1705322 0.02039,0.053307 0.06384,0.093621 0.119373,0.1214397 0.05554,0.027819 0.124183,0.045448 0.205155,0.055294 0.161944,0.019691 0.374761,0.00848 0.626835,-0.028422 0.12185,-0.017838 0.253048,-0.04183 0.391708,-0.07183 0.06749,0.081858 0.142859,0.1568568 0.224792,0.2242757 0.04303,0.035406 0.08783,0.06879 0.134359,0.099735 h 0.195337 1.422135 0.19482 c 0.04647,-0.030945 0.0914,-0.06433 0.134359,-0.099735 0.07376,-0.060785 0.142014,-0.1278915 0.204122,-0.2005046 0.146169,0.032067 0.284088,0.057776 0.411861,0.076481 0.03849,0.00563 0.07603,0.010561 0.112655,0.014986 0.02009,0.1286227 0.132216,0.2284098 0.266133,0.2284098 0.129854,0 0.23804,-0.093574 0.262517,-0.2165242 0.07468,-0.010147 0.138505,-0.027605 0.190686,-0.053744 0.05554,-0.027819 0.0995,-0.068133 0.119889,-0.1214396 0.02039,-0.053307 0.01452,-0.1127499 -0.0083,-0.1705322 -0.02286,-0.057784 -0.0621,-0.1163947 -0.115824,-0.177768 C 50.241634,7.3727687 50.075672,7.2388873 49.863329,7.0981258 49.754615,7.0260598 49.633366,6.9524146 49.501594,6.8779842 c 1.28e-4,-0.00842 0,-0.016872 0,-0.025321 0,-0.024864 -4.52e-4,-0.04982 -0.0015,-0.074414 0.115649,-0.066355 0.222765,-0.1319959 0.319877,-0.196371 0.212343,-0.1407616 0.376238,-0.2736097 0.483691,-0.3963582 0.05373,-0.061375 0.09348,-0.1205008 0.116272,-0.1782837 0.02279,-0.057783 0.02814,-0.1167089 0.0078,-0.1700155 -0.02039,-0.053307 -0.06384,-0.094137 -0.119373,-0.1219564 -0.05554,-0.027819 -0.123667,-0.043382 -0.204638,-0.053227 -0.08097,-0.00985 -0.174355,-0.012576 -0.279053,-0.00827 -0.104698,0.00431 -0.220712,0.015656 -0.346749,0.034106 -0.122545,0.017939 -0.254237,0.042107 -0.393774,0.072347 -0.218524,-0.2437042 -0.5092,-0.4212524 -0.838192,-0.4997111 v 0.1023194 c 0.281096,0.071518 0.531045,0.2204252 0.726054,0.4227132 0.02659,0.02758 0.052,0.056278 0.07648,0.085783 0.194757,0.2347204 0.321231,0.5284481 0.348299,0.850594 -0.0294,0.016546 -0.05944,0.032995 -0.08992,0.049609 -0.03484,0.018995 -0.07025,0.038315 -0.106454,0.057361 -0.336247,0.1769156 -0.730058,0.3550964 -1.158068,0.5188315 -0.07278,0.027841 -0.14477,0.054733 -0.216525,0.080615 -0.04613,-0.017003 -0.09248,-0.034392 -0.139009,-0.052193 -0.450793,-0.1724508 -0.863643,-0.3611193 -1.211296,-0.5472534 -0.03597,-0.019258 -0.07087,-0.038692 -0.10542,-0.057878 -0.01293,-0.00718 -0.02603,-0.014022 -0.03876,-0.021187 0.02125,-0.3221345 0.141572,-0.6172625 0.330729,-0.8547282 0.02358,-0.029602 0.04824,-0.058023 0.0739,-0.085783 0.199833,-0.2161627 0.460957,-0.3751326 0.756027,-0.4485514 z m 2.478401,0.4940267 c 0.04391,0.00114 0.08417,0.0038 0.120923,0.00827 0.0735,0.00894 0.133243,0.02421 0.173633,0.044442 0.04039,0.020232 0.06016,0.042086 0.06976,0.067179 0.0096,0.025093 0.01037,0.056679 -0.0062,0.098702 -0.01657,0.042023 -0.05097,0.093634 -0.09973,0.1493449 -0.09754,0.1114199 -0.257778,0.2410178 -0.465606,0.3787865 -0.08317,0.055132 -0.174157,0.1114613 -0.271818,0.1684652 -0.03457,-0.3069752 -0.153925,-0.5885305 -0.334347,-0.820105 0.117833,-0.024682 0.229367,-0.044652 0.33383,-0.059945 0.185037,-0.027088 0.347824,-0.038561 0.479557,-0.03514 z m -4.211629,0.028422 c 0.131733,-0.00342 0.294521,0.00805 0.479557,0.03514 0.09887,0.014474 0.204281,0.033034 0.315227,0.05581 -0.175396,0.2335263 -0.289755,0.5156879 -0.319361,0.8221726 -0.09626,-0.056271 -0.186077,-0.111959 -0.2682,-0.1663981 -0.207828,-0.1377691 -0.368067,-0.2678834 -0.465605,-0.3793051 -0.04877,-0.055711 -0.08264,-0.1083553 -0.09922,-0.1503784 -0.01657,-0.042023 -0.01632,-0.072058 -0.0067,-0.097152 0.0096,-0.025094 0.02937,-0.046947 0.06976,-0.067179 0.04039,-0.020231 0.100133,-0.035505 0.173633,-0.044442 0.03675,-0.00447 0.07701,-0.00713 0.120923,-0.00827 z m 3.643189,1.0417969 c 0.0034,0.00185 0.007,0.00332 0.01033,0.00517 -0.0033,0.00184 -0.007,0.00384 -0.01033,0.00568 7.6e-5,0.0063 0,0.0128 0,0.01912 0,0.027865 -6.07e-4,0.055701 -0.0021,0.083199 -0.0174,0.3276013 -0.136914,0.627711 -0.327626,0.8692 -0.332183,-0.075703 -0.706935,-0.1846777 -1.100708,-0.3240113 0.03543,-0.01318 0.0708,-0.026667 0.106453,-0.040308 0.456963,-0.1748111 0.875675,-0.3659634 1.229383,-0.5555216 0.03208,-0.017192 0.06358,-0.034523 0.09457,-0.051677 -4.5e-5,-0.0037 7e-5,-0.00716 0,-0.010852 z m -3.073715,0.039791 c 0.0138,0.00763 0.02733,0.015094 0.04134,0.022738 0.364385,0.198728 0.802022,0.4004901 1.281576,0.5839436 0.0095,0.00363 0.01896,0.00726 0.02842,0.010852 -0.372165,0.1287354 -0.72563,0.2298652 -1.040243,0.3007564 -0.184996,-0.2441163 -0.299038,-0.5453751 -0.310576,-0.8728149 -5.3e-4,-0.015041 -4.21e-4,-0.030327 -5.17e-4,-0.045475 z m -0.09819,0.1007691 c 0.02095,0.312205 0.12972,0.6008057 0.301791,0.8407755 -0.119672,0.025033 -0.232689,0.045491 -0.338481,0.060978 -0.246715,0.036117 -0.452963,0.046296 -0.599963,0.028422 -0.0735,-0.00894 -0.131693,-0.024727 -0.172083,-0.044958 -0.04039,-0.020232 -0.06068,-0.044153 -0.07028,-0.069247 -0.0096,-0.025094 -0.0099,-0.054612 0.0067,-0.096635 0.01563,-0.039641 0.04564,-0.087016 0.08992,-0.1390096 0.04441,0.032229 0.09902,0.05116 0.157613,0.05116 0.147939,0 0.267684,-0.1218126 0.267684,-0.269751 0,-0.043188 -0.0103,-0.083798 -0.02842,-0.1198893 0.02468,-0.017169 0.05024,-0.034281 0.07648,-0.051676 0.09363,-0.062068 0.196954,-0.1259056 0.309025,-0.1901692 z m 3.265951,0.026872 c 0.113177,0.064999 0.217654,0.1290944 0.312125,0.1917191 0.207829,0.1377686 0.367551,0.268917 0.465088,0.3803385 0.04877,0.055712 0.08161,0.1068047 0.09819,0.1488282 0.01658,0.042025 0.01632,0.071541 0.0067,0.096635 -0.0096,0.025093 -0.02937,0.046949 -0.06976,0.067179 -0.03516,0.017606 -0.0841,0.033226 -0.144694,0.042891 -0.02256,-0.124991 -0.13199,-0.2196249 -0.26355,-0.2196249 -0.127643,0 -0.235795,0.089312 -0.263033,0.2087728 -0.03293,-0.00404 -0.06671,-0.00889 -0.101287,-0.013952 -0.111143,-0.01627 -0.230174,-0.037798 -0.356568,-0.064595 0.177145,-0.2380613 0.290804,-0.5254698 0.316794,-0.8381917 z m -3.890714,0.1669144 c 0.03532,0 0.06774,0.010862 0.09457,0.028939 0.02807,0.018916 0.05024,0.045792 0.06253,0.078031 0.0072,0.018849 0.01085,0.039367 0.01085,0.060978 0,0.093894 -0.07405,0.1700155 -0.167948,0.1700155 -0.03257,0 -0.06304,-0.00894 -0.08888,-0.024805 -0.02885,-0.017711 -0.05208,-0.043849 -0.06615,-0.074931 -0.0097,-0.021351 -0.01499,-0.045307 -0.01499,-0.07028 0,-0.093894 0.07612,-0.1679484 0.170015,-0.1679484 z m 2.22002,0.377238 c 0.418279,0.1528174 0.818167,0.2729033 1.174088,0.3565673 -0.07728,0.084394 -0.1641,0.1598718 -0.258382,0.2253093 H 46.989086 C 46.886075,8.0446555 46.792054,7.9610164 46.709517,7.8670711 47.048258,7.7883931 47.427571,7.6764562 47.825211,7.5342749 Z m 2.074808,0.2635498 c 0.08085,0 0.146996,0.055015 0.163815,0.1302246 0.0027,0.012132 0.0041,0.024681 0.0041,0.037724 0,0.022023 -0.0039,0.043222 -0.01137,0.062528 -0.02431,0.063007 -0.08471,0.107487 -0.15658,0.107487 -0.07558,0 -0.139654,-0.049117 -0.161747,-0.1173055 -0.0053,-0.016523 -0.0083,-0.034395 -0.0083,-0.05271 0,-0.016768 0.0027,-0.032864 0.0072,-0.048059 0.02078,-0.06989 0.08565,-0.1198893 0.162781,-0.1198893 z"
         style="baseline-shift:baseline;display:inline;overflow:visible;vector-effect:none;fill:#ffffff;enable-background:accumulate;stop-color:#000000"
         id="path70-1-2" />
      <path
         d="m 47.328328,3.7042718 c -0.01408,6.71e-4 -0.04636,0.00372 -0.08992,0.015503 -0.05921,0.016019 -0.141153,0.049424 -0.232027,0.1173055 l 0.06046,0.080099 c 0.08069,-0.060275 0.149646,-0.088366 0.197404,-0.1012858 0.04776,-0.01292 0.07028,-0.011886 0.07028,-0.011886 h 0.0015 0.05684 v 1.2009603 h 0.09973 V 3.8045241 l 0.749825,0.00258 v 1.1746053 c 0,0.1251012 0.101758,0.2263428 0.226859,0.2263428 0.12302,0 0.225048,-0.097917 0.22841,-0.2201416 l -0.09974,-5.168e-4 v 5.168e-4 c -0.0032,0.068143 -0.05965,0.1209228 -0.128674,0.1209228 -0.07106,0 -0.127124,-0.056067 -0.127124,-0.127124 V 4.7925775 3.8071079 l 0.273368,0.00103 v -0.101799 l -1.277441,-0.00207 h -0.0021 c -3.9e-4,-1.17e-5 -0.0031,-2.237e-4 -0.0077,0 z"
         style="baseline-shift:baseline;display:inline;overflow:visible;vector-effect:none;fill:#ffffff;enable-background:accumulate;stop-color:#000000"
         id="path74-8-7" />
      <path
         style="fill:none;stroke:#ffffff;stroke-width:0.1;stroke-linecap:round;stroke-dasharray:none;stroke-opacity:1"
         d="m 47.744323,7.0455649 c 0,0 -0.03721,-0.4082438 0.295589,-0.6190837"
         id="path5-6" />
      <path
         style="fill:none;stroke:#ffffff;stroke-width:0.1;stroke-linecap:round;stroke-dasharray:none;stroke-opacity:1"
         d="m 47.612032,6.2704184 c 0,0 -0.305527,-0.2154746 -0.333108,-0.1258098 -0.03555,0.1155757 -0.02982,0.6266058 0.486069,0.6808146"
         id="path6-1" />
      <path
         style="fill:none;stroke:#ffffff;stroke-width:0.1;stroke-linecap:round;stroke-dasharray:none;stroke-opacity:1"
         d="m 47.821836,6.6517904 c -0.137993,-0.2913856 0.06504,-0.4994811 0.292082,-0.5667028 0.250516,-0.074172 0.301883,-0.1532023 0.297029,-0.1474656 10e-4,0.00587 0.0024,0.012638 0.0042,0.020227 0.04046,0.1715191 0.258396,0.7622689 -0.363168,0.8566331"
         id="path7-4" />
    </g>
  </g>
</svg>
